<svg xmlns="http://www.w3.org/2000/svg" xmlns:xlink="http://www.w3.org/1999/xlink" width="496" zoomAndPan="magnify" viewBox="0 0 372 95.999999" height="128" preserveAspectRatio="xMidYMid meet" version="1.0"><defs><g/></defs><g fill="#ffffff" fill-opacity="1"><g transform="translate(0.0117207, 86.624997)"><g><path d="M 61.21875 0 L 85.777344 0 L 55.222656 -80.703125 L 31.589844 -80.703125 L 1.152344 0 L 25.710938 0 L 30.667969 -14.296875 L 56.261719 -14.296875 Z M 37.238281 -32.972656 L 43.464844 -50.726562 L 49.691406 -32.972656 Z M 37.238281 -32.972656 "/></g></g></g><g fill="#ffffff" fill-opacity="1"><g transform="translate(86.939641, 86.624997)"><g><path d="M 30.207031 -18.675781 L 30.207031 -80.703125 L 8.070312 -80.703125 L 8.070312 0 L 64.214844 0 L 64.214844 -18.675781 Z M 30.207031 -18.675781 "/></g></g></g><g fill="#ffffff" fill-opacity="1"><g transform="translate(153.461408, 86.624997)"><g><path d="M 60.296875 -43.003906 C 65.945312 -47.152344 67.789062 -53.839844 67.789062 -58.453125 C 67.789062 -71.824219 58.453125 -80.703125 41.042969 -80.703125 L 8.070312 -80.703125 L 8.070312 0 L 42.3125 0 C 63.640625 0 72.980469 -9.914062 72.980469 -23.980469 C 72.980469 -31.359375 69.636719 -39.3125 60.296875 -43.003906 Z M 41.160156 -62.027344 C 46.117188 -62.027344 48.421875 -59.605469 48.421875 -56.492188 C 48.421875 -53.378906 46.117188 -50.957031 41.160156 -50.957031 L 30.089844 -50.957031 L 30.089844 -62.027344 Z M 44.386719 -18.675781 L 30.089844 -18.675781 L 30.089844 -32.28125 L 44.386719 -32.28125 C 50.035156 -32.28125 53.148438 -29.285156 53.148438 -25.480469 C 53.148438 -21.789062 50.035156 -18.675781 44.386719 -18.675781 Z M 44.386719 -18.675781 "/></g></g></g></svg>